<svg viewBox="0 0 492 456" fill="none" xmlns="http://www.w3.org/2000/svg">
<path d="M53.2543 159.733H223.244C231.623 159.733 238.415 152.941 238.415 144.563V114.222C238.415 105.843 231.623 99.0514 223.244 99.0514H53.2543C44.8756 99.0514 38.0836 105.843 38.0836 114.222V144.563C38.0845 152.941 44.8765 159.733 53.2543 159.733ZM53.2543 114.222H223.244V144.563H53.2543V114.222ZM438.745 99.0514H268.755C260.376 99.0514 253.584 105.843 253.584 114.222V144.563C253.584 152.941 260.376 159.733 268.755 159.733H438.745C447.123 159.733 453.915 152.941 453.915 144.563V114.222C453.915 105.843 447.123 99.0514 438.745 99.0514ZM268.755 144.563V114.222H438.745V144.563H268.755ZM438.745 174.904H53.2543C44.8756 174.904 38.0836 181.696 38.0836 190.075V250.349C38.0836 258.728 44.8756 265.52 53.2543 265.52H438.744C447.123 265.52 453.915 258.728 453.915 250.349V190.074C453.915 181.696 447.123 174.904 438.745 174.904ZM53.2543 250.349V190.074H438.744V250.349H53.2543ZM431.159 372.118H306.681C294.114 372.118 283.926 382.307 283.926 394.874C283.926 407.441 294.114 417.629 306.681 417.629H431.16C443.727 417.629 453.915 407.441 453.915 394.874C453.915 382.307 443.727 372.118 431.159 372.118Z" fill="white"/>
<path d="M57.7241 311.844H98.7654C102.955 311.844 106.35 308.447 106.35 304.259C106.35 300.069 102.954 296.674 98.7654 296.674H57.7241C53.5348 296.674 50.1392 300.07 50.1392 304.259C50.1392 308.447 53.5357 311.844 57.7241 311.844ZM129.107 311.844H220.129C224.318 311.844 227.714 308.447 227.714 304.259C227.714 300.069 224.318 296.674 220.129 296.674H129.107C124.917 296.674 121.522 300.07 121.522 304.259C121.521 308.447 124.917 311.844 129.107 311.844ZM437.796 327.013H57.7241C53.5348 327.013 50.1392 330.409 50.1392 334.598C50.1392 338.788 53.5357 342.183 57.7241 342.183H437.796C441.986 342.183 445.381 338.788 445.381 334.598C445.381 330.409 441.986 327.013 437.796 327.013Z" fill="white"/>
<path fill-rule="evenodd" clip-rule="evenodd" d="M453.914 0.444336H38.0844C17.1484 0.469225 0.183092 17.4346 0.158203 38.3706V417.63C0.183092 438.565 17.1484 455.531 38.0844 455.555H453.915C474.85 455.531 491.816 438.565 491.842 417.629V38.3706C491.816 17.4346 474.85 0.469225 453.914 0.444336ZM453.914 440.385H38.0844C25.5173 440.385 15.3289 430.196 15.3289 417.629V76.2959H476.671V417.629C476.67 430.197 466.483 440.385 453.914 440.385ZM374.95 45.9554C379.139 45.9554 382.534 42.5603 382.534 38.3721C382.534 34.184 379.139 30.7888 374.95 30.7888C370.762 30.7888 367.367 34.184 367.367 38.3721C367.367 42.5603 370.762 45.9554 374.95 45.9554ZM412.873 38.3721C412.873 42.5603 409.477 45.9554 405.289 45.9554C401.101 45.9554 397.706 42.5603 397.706 38.3721C397.706 34.184 401.101 30.7888 405.289 30.7888C409.477 30.7888 412.873 34.184 412.873 38.3721ZM435.628 45.9554C439.816 45.9554 443.211 42.5603 443.211 38.3721C443.211 34.184 439.816 30.7888 435.628 30.7888C431.44 30.7888 428.045 34.184 428.045 38.3721C428.045 42.5603 431.44 45.9554 435.628 45.9554ZM51.0075 51.319C53.9692 54.2799 58.771 54.2799 61.7328 51.319L63.955 49.0968L66.1772 51.319C69.1532 54.1937 73.8848 54.1528 76.8101 51.2266C79.7364 48.3004 79.7772 43.5697 76.9026 40.5937L74.6804 38.3715L76.9026 36.1493C79.7772 33.1733 79.7364 28.4417 76.8101 25.5164C73.8839 22.5901 69.1532 22.5493 66.1772 25.4239L63.955 27.6461L61.7328 25.4239C58.7568 22.5493 54.0252 22.5901 51.0999 25.5164C48.1737 28.4426 48.1328 33.1733 51.0075 36.1493L53.2297 38.3715L51.0075 40.5937C48.0457 43.5555 48.0457 48.3573 51.0075 51.319Z" fill="white"/>
</svg>
